<svg t="1697072612401" class="icon" viewBox="0 0 1024 1024" version="1.1" xmlns="http://www.w3.org/2000/svg" p-id="19734" width="40" height="40"><path d="M139.9 492.28h-32.24c-24.07 0.05-43.61-19.42-43.66-43.48-0.02-13 5.76-25.34 15.77-33.64l348.57-288.88c48.47-40.37 118.85-40.37 167.31 0l348.57 288.88c18.53 15.35 21.1 42.82 5.75 61.35a43.537 43.537 0 0 1-33.64 15.77H884.1c-12.03 0-21.79 9.75-21.79 21.79v283.21c0 72.19-58.52 130.71-130.71 130.71h-43.57c-48.13 0-87.14-39.02-87.14-87.14V710.14c0-48.13-39.02-87.14-87.14-87.14-48.13 0-87.14 39.02-87.14 87.14v130.71c0 48.13-39.02 87.14-87.14 87.14H295.9c-72.19 0-130.71-58.52-130.71-130.71V514.07c0.15-12.03-9.47-21.91-21.5-22.06-1.28-0.02-2.54 0.07-3.79 0.27z" fill="#e6e6e6" p-id="19735"></path></svg>
